<?xml version="1.0" encoding="utf-8"?>
<svg viewBox="0 0 512 512" style="enable-background:new 0 0 512 512;" xmlns="http://www.w3.org/2000/svg">
  <path d="M 441 86 L 425.595 86 C 411.81 86 400.595 74.785 400.595 61 C 400.595 47.215 411.81 36 425.595 36 L 441 36 C 454.785 36 466 47.215 466 61 C 466 74.785 454.785 86 441 86 Z M 425.595 46 C 417.324 46 410.595 52.729 410.595 61 C 410.595 69.271 417.324 76 425.595 76 L 441 76 C 449.271 76 456 69.271 456 61 C 456 52.729 449.271 46 441 46 L 425.595 46 Z" style="fill: rgb(40, 40, 40);"/>
  <path d="M 86.405 86 L 71 86 C 57.215 86 46 74.785 46 61 C 46 47.215 57.215 36 71 36 L 86.405 36 C 100.19 36 111.405 47.215 111.405 61 C 111.405 74.785 100.19 86 86.405 86 Z M 71 46 C 62.729 46 56 52.729 56 61 C 56 69.271 62.729 76 71 76 L 86.405 76 C 94.676 76 101.405 69.271 101.405 61 C 101.405 52.729 94.676 46 86.405 46 L 71 46 Z" style="fill: rgb(40, 40, 40);"/>
  <path d="M 385.595 96 L 126.405 96 C 112.62 96 101.405 84.785 101.405 71 L 101.405 51 C 101.405 37.215 112.62 26 126.405 26 L 284.359 26 C 287.121 26 289.359 28.239 289.359 31 C 289.359 33.761 287.121 36 284.359 36 L 126.405 36 C 118.134 36 111.405 42.729 111.405 51 L 111.405 71 C 111.405 79.271 118.134 86 126.405 86 L 385.594 86 C 393.865 86 400.594 79.271 400.594 71 L 400.594 51 C 400.594 42.729 393.865 36 385.594 36 L 385.359 36 C 382.597 36 380.359 33.761 380.359 31 C 380.359 28.239 382.597 26 385.359 26 L 385.594 26 C 399.379 26 410.594 37.215 410.594 51 L 410.594 71 C 410.595 84.785 399.38 96 385.595 96 Z M 335.359 36 L 334.359 36 C 331.597 36 329.359 33.761 329.359 31 C 329.359 28.239 331.597 26 334.359 26 L 335.359 26 C 338.121 26 340.359 28.239 340.359 31 C 340.359 33.761 338.121 36 335.359 36 Z" style="fill: rgb(80, 73, 69);"/>
  <path d="M 441 476 L 425.595 476 C 411.81 476 400.595 464.785 400.595 451 C 400.595 437.215 411.81 426 425.595 426 L 441 426 C 454.785 426 466 437.215 466 451 C 466 464.785 454.785 476 441 476 Z M 425.595 436 C 417.324 436 410.595 442.729 410.595 451 C 410.595 459.271 417.324 466 425.595 466 L 441 466 C 449.271 466 456 459.271 456 451 C 456 442.729 449.271 436 441 436 L 425.595 436 Z" style="fill: rgb(40, 40, 40);"/>
  <path d="M 86.405 476 L 71 476 C 57.215 476 46 464.785 46 451 C 46 437.215 57.215 426 71 426 L 86.405 426 C 100.19 426 111.405 437.215 111.405 451 C 111.405 464.785 100.19 476 86.405 476 Z M 71 436 C 62.729 436 56 442.729 56 451 C 56 459.271 62.729 466 71 466 L 86.405 466 C 94.676 466 101.405 459.271 101.405 451 C 101.405 442.729 94.676 436 86.405 436 L 71 436 Z" style="fill: rgb(40, 40, 40);"/>
  <path d="M 385.595 486 L 126.405 486 C 112.62 486 101.405 474.785 101.405 461 L 101.405 441 C 101.405 427.215 112.62 416 126.405 416 L 284.359 416 C 287.121 416 289.359 418.238 289.359 421 C 289.359 423.762 287.121 426 284.359 426 L 126.405 426 C 118.134 426 111.405 432.729 111.405 441 L 111.405 461 C 111.405 469.271 118.134 476 126.405 476 L 385.594 476 C 393.865 476 400.594 469.271 400.594 461 L 400.594 441 C 400.594 432.729 393.865 426 385.594 426 L 385.359 426 C 382.597 426 380.359 423.762 380.359 421 C 380.359 418.238 382.597 416 385.359 416 L 385.594 416 C 399.379 416 410.594 427.215 410.594 441 L 410.594 461 C 410.595 474.785 399.38 486 385.595 486 Z M 335.359 426 L 334.359 426 C 331.597 426 329.359 423.762 329.359 421 C 329.359 418.238 331.597 416 334.359 416 L 335.359 416 C 338.121 416 340.359 418.238 340.359 421 C 340.359 423.762 338.121 426 335.359 426 Z" style="fill: rgb(80, 73, 69);"/>
  <path d="M 385.552 426 L 121 426 C 118.239 426 116 423.762 116 421 L 116 191 C 116 188.239 118.239 186 121 186 C 123.761 186 126 188.239 126 191 L 126 416 L 385.552 416 C 388.314 416 390.552 418.238 390.552 421 C 390.552 423.762 388.314 426 385.552 426 Z M 391 378 C 388.238 378 386 375.762 386 373 L 386 372 C 386 369.238 388.238 367 391 367 C 393.762 367 396 369.238 396 372 L 396 373 C 396 375.762 393.762 378 391 378 Z M 391 327 C 388.238 327 386 324.762 386 322 L 386 96 L 134.294 96 C 131.533 96 129.294 93.761 129.294 91 C 129.294 88.239 131.533 86 134.294 86 L 391 86 C 393.762 86 396 88.239 396 91 L 396 322 C 396 324.762 393.762 327 391 327 Z M 121 151.927 C 118.239 151.927 116 149.688 116 146.927 L 116 145.927 C 116 143.166 118.239 140.927 121 140.927 C 123.761 140.927 126 143.166 126 145.927 L 126 146.927 C 126 149.688 123.761 151.927 121 151.927 Z" style="fill: rgb(80, 73, 69);"/>
  <path d="M 181 136 L 121 136 C 118.239 136 116 133.761 116 131 C 116 128.239 118.239 126 121 126 L 181 126 C 183.761 126 186 128.239 186 131 C 186 133.761 183.761 136 181 136 Z" style="fill: rgb(80, 73, 69);"/>
  <path d="M 391 136 L 331 136 C 328.238 136 326 133.761 326 131 C 326 128.239 328.238 126 331 126 L 391 126 C 393.762 126 396 128.239 396 131 C 396 133.761 393.762 136 391 136 Z" style="fill: rgb(80, 73, 69);"/>
  <path d="M 211 136.003 C 209.68 136.003 208.39 135.463 207.46 134.533 C 206.53 133.603 206 132.313 206 131.003 C 206 129.683 206.53 128.393 207.46 127.463 C 208.39 126.533 209.68 126.003 211 126.003 C 212.32 126.003 213.61 126.533 214.54 127.463 C 215.47 128.393 216 129.683 216 131.003 C 216 132.313 215.47 133.603 214.54 134.533 C 213.61 135.463 212.32 136.003 211 136.003 Z" style="fill: rgb(80, 73, 69);"/>
  <path d="M 241 136.003 C 239.68 136.003 238.39 135.463 237.46 134.533 C 236.53 133.603 236 132.313 236 131.003 C 236 129.683 236.53 128.393 237.46 127.463 C 238.39 126.533 239.68 126.003 241 126.003 C 242.32 126.003 243.61 126.533 244.54 127.463 C 245.47 128.393 246 129.683 246 131.003 C 246 132.313 245.47 133.603 244.54 134.533 C 243.61 135.463 242.32 136.003 241 136.003 Z" style="fill: rgb(80, 73, 69);"/>
  <path d="M 312.974 356 L 160.025 356 C 157.802 356 156 353.762 156 351 C 156 348.238 157.802 346 160.025 346 L 312.974 346 C 315.197 346 316.999 348.238 316.999 351 C 316.999 353.762 315.197 356 312.974 356 Z" style="fill: rgb(189, 174, 147);"/>
  <path d="M 351 326 L 161 326 C 158.239 326 156 323.762 156 321 C 156 318.238 158.239 316 161 316 L 351 316 C 353.762 316 356 318.238 356 321 C 356 323.762 353.762 326 351 326 Z" style="fill: rgb(146, 131, 116);"/>
  <path d="M 351 266 L 161 266 C 158.239 266 156 263.762 156 261 C 156 258.238 158.239 256 161 256 L 351 256 C 353.762 256 356 258.238 356 261 C 356 263.762 353.762 266 351 266 Z" style="fill: rgb(189, 174, 147);"/>
  <path d="M 311.438 296 L 211.345 296 C 208.273 296 205.784 293.762 205.784 291 C 205.784 288.238 208.273 286 211.345 286 L 311.438 286 C 314.51 286 316.999 288.238 316.999 291 C 316.999 293.762 314.51 296 311.438 296 Z" style="fill: rgb(146, 131, 116);"/>
  <path d="M 351 236 L 261 236 C 258.238 236 256 233.761 256 231 C 256 228.239 258.238 226 261 226 L 351 226 C 353.762 226 356 228.239 356 231 C 356 233.761 353.762 236 351 236 Z" style="fill: rgb(146, 131, 116);"/>
  <path d="M 351 296 L 350 296 C 347.238 296 345 293.761 345 291 C 345 288.239 347.238 286 350 286 L 351 286 C 353.762 286 356 288.239 356 291 C 356 293.761 353.762 296 351 296 Z" style="fill: rgb(146, 131, 116);"/>
  <path d="M 331.5 296 L 330.5 296 C 327.738 296 325.5 293.761 325.5 291 C 325.5 288.239 327.738 286 330.5 286 L 331.5 286 C 334.262 286 336.5 288.239 336.5 291 C 336.5 293.761 334.262 296 331.5 296 Z" style="fill: rgb(146, 131, 116);"/>
</svg>